# xmcd
#
# Track frame offsets:
# 150
# 10287
# 20507
# 32405
# 43460
# 52830
# 64387
# 73952
# 83840
# 96822
# 104022
# 112862
# 125680
# 134460
# 143972
# 158657
# 168885
# 179640
# 191992
# 205695
# 212692
# 222210
# 234900
# 243722
# 258262
# 271370
# 281710
# 289950
# 301050
# 312992
# 322925
#
# Disc length: 4427 seconds
#
#
# Revision: 0
# Processed by: cddbd v1.4PL0 Copyright (c) Steve Scherf et al.
# Submitted via: FreeRIP 2.30 
#
DISCID=d511491f
DTITLE=Ecco-fonic Record Story - This is Ecco-fonic!
DYEAR=2003
DGENRE=Rockabilly
TTITLE0=This is Ecco-Fonic
TTITLE1=It Came to Me in a Dream
TTITLE2=T.J. Tuck and Roll
TTITLE3=Look at that Moon
TTITLE4=Country Cabin Boys
TTITLE5=Which Way the Wind Blows
TTITLE6=Big River Rag
TTITLE7=Beat Out My Love
TTITLE8=Swingin' in Outer Space
TTITLE9=Beatin' on the Bars
TTITLE10=Diggin' It
TTITLE11=Solid Sender
TTITLE12=Ha-So
TTITLE13=Wiggly Little Mama
TTITLE14=Jumpin' Track
TTITLE15=Go Go Rip Van Winkle
TTITLE16=Del Scorcho
TTITLE17=Jack in the Boogie Box
TTITLE18=Roll Hot Rod Roll
TTITLE19=Asphalt Aisle
TTITLE20=Midnight Swell
TTITLE21=Deep Dark Jungle
TTITLE22=Mothers Worry
TTITLE23=Friday Night
TTITLE24=Burbank Bounce
TTITLE25=Knuckleheaded Polka
TTITLE26=Twin Pipes and Pin Stripes
TTITLE27=Corn Wiskey
TTITLE28=Ain't Givin' Up
TTITLE29=Tulsa Baby
TTITLE30=Samoa
EXTD=EFCD-001 Compilation
EXTT0=Deke Dickerson
EXTT1=Deke Dickerson
EXTT2=Deke Dickerson
EXTT3=Deke Dickerson
EXTT4=Wounded Knee Polka
EXTT5=Ramblin' James
EXTT6=Lester Peabody
EXTT7=Krazy Kats
EXTT8=Deke Dickerson
EXTT9=Deke Dickerson
EXTT10=Deke Dickerson
EXTT11=Deke Dickerson
EXTT12=Jimmy Bryant
EXTT13=Krazy Cats
EXTT14=Sean Mencher
EXTT15=Maynard Horlick
EXTT16=Brian Nevill and the Quiet Three
EXTT17=Horton Brothers
EXTT18=Horton Brothers
EXTT19=Deke Dickerson
EXTT20=Deke Dickerson
EXTT21=Deke Dickerson
EXTT22=Deke Dickerson
EXTT23=Ramblin' James
EXTT24=Biller and Wakefield
EXTT25=Biller and Wakefield
EXTT26=Sammy Masters
EXTT27=Smith's Ranch Boys
EXTT28=Smith's Ranch Boys
EXTT29=Deke Dickerson
EXTT30=
PLAYORDER=
